<?xml version="1.0" encoding="iso-8859-1"?>
<!-- Uploaded to: SVG Repo, www.svgrepo.com, Generator: SVG Repo Mixer Tools -->
<!DOCTYPE svg PUBLIC "-//W3C//DTD SVG 1.1//EN" "http://www.w3.org/Graphics/SVG/1.1/DTD/svg11.dtd">
<svg fill="#000000" version="1.1" id="Capa_1" xmlns="http://www.w3.org/2000/svg" xmlns:xlink="http://www.w3.org/1999/xlink" 
	 width="800px" height="800px" viewBox="0 0 94.748 94.748"
	 xml:space="preserve">
<g>
	<g>
		<path d="M20.423,30.79h9.287v3.178h-9.287v3.29h12.604v-16.75H20.423V30.79z M23.685,23.797h5.97v3.647h-5.97V23.797z"/>
		<path d="M61.919,33.94h-5.475V20.508h-3.315v6.96l-11.775,0.005v-6.965h-3.316V33.94h-4.312v3.317h7.545v-6.385h11.774v6.385
			h21.476V20.508H61.919V33.94z M65.235,23.796h5.97v10.116h-5.97V23.796z"/>
		<rect x="42.516" y="16.342" width="3.482" height="3.482"/>
		<rect x="48.94" y="16.342" width="3.483" height="3.482"/>
		<polygon points="59.649,37.953 47.37,50.227 35.099,37.953 17.738,37.953 17.8,77.085 37.286,77.085 37.24,77.039 37.258,77.039 
			37.258,65.462 47.37,75.479 57.576,65.385 57.576,77.016 57.573,77.016 57.547,77.042 57.485,77.048 57.542,77.048 57.503,77.085 
			77.003,77.085 77.011,37.953 		"/>
		<path d="M80.872,33.499V13.876H61.249L47.374,0L33.499,13.876H13.876v19.623L0.001,47.374l13.875,13.875v19.623h19.623
			l13.875,13.876l13.875-13.875h19.623V61.249l13.875-13.875L80.872,33.499z M78.329,56.218v22.194H56.171l-8.797,8.762
			l-8.762-8.761H16.474v-22.14l-8.9-8.899l11.657-11.657V19.231h16.485L47.374,7.574l11.657,11.657h16.485v16.485l11.657,11.658
			L78.329,56.218z"/>
	</g>
</g>
</svg>